<?xml version="1.0" encoding="iso-8859-1"?>
<!-- Uploaded to: SVG Repo, www.svgrepo.com, Generator: SVG Repo Mixer Tools -->
<svg version="1.1" id="Layer_1" xmlns="http://www.w3.org/2000/svg" xmlns:xlink="http://www.w3.org/1999/xlink" 
	 viewBox="0 0 485.874 485.874" xml:space="preserve">
<rect x="161.48" y="58.493" transform="matrix(-0.7071 0.7071 -0.7071 -0.7071 542.2417 220.378)" style="fill:#E66032;" width="127.999" height="327.997"/>
<rect x="291.571" y="332.597" transform="matrix(-0.7071 0.7071 -0.7071 -0.7071 856.3207 350.4949)" style="fill:#AD4826;" width="127.999" height="40"/>
<rect x="319.87" y="360.891" transform="matrix(-0.7071 0.7071 -0.7071 -0.7071 924.636 378.7851)" style="fill:#E66032;" width="127.999" height="40"/>
<path style="fill:#FFFFFF;" d="M443.262,349.776l-90.504,90.504l25.256,25.256c12.496,12.496,32.76,12.496,45.256,0l45.256-45.256
	c12.496-12.496,12.496-32.76,0-45.256L443.262,349.776z"/>
<polygon style="fill:#AD4826;" points="15.99,13.824 43.71,93.136 95.606,41.232 "/>
<polygon style="fill:#FFFFFF;" points="43.71,93.136 64.254,151.784 154.766,61.272 95.606,41.232 "/>
<path style="fill:#4D4D4D;" d="M474.174,369.368c0,0-316.68-316.584-316.848-316.64l-59.16-17.896c-0.008,0-0.008,0-0.016,0
	L18.59,6.848c-2.888-1-6.104-0.56-8.272,1.632c-2.168,2.168-2.888,6.72-1.88,9.624L36.15,98.832c0.008,0,0.016,0,0.016,0
	l20.536,57.112c0.024,0.072,0.072-0.624,0.104-0.552c0.064,0.16,0.152-0.08,0.224,0.072c0.352,0.776,0.816,1.28,1.384,1.896
	c0.08,0.08,0.104,0.096,0.184,0.176L372.358,471.2c7.8,7.8,18.04,11.696,28.288,11.696c10.24,0,20.488-3.896,28.28-11.696
	l45.248-45.248C489.774,410.352,489.774,384.968,474.174,369.368z M307.494,383.712l39.6-39.6l39.6-39.6l16.968,16.968
	l-79.192,79.192L307.494,383.712z M154.766,72.584L375.39,293.208l-33.944,33.936L120.822,106.528L154.766,72.584z M80.894,44.64
	L47.062,78.472L28.982,26.76L80.894,44.64z M97.75,50.408l42.256,14.304l-36.408,36.408l-36,36l-14.68-41.888L97.75,50.408z
	 M109.51,117.84l220.624,220.616L296.19,372.4L75.566,151.784L109.51,117.84z M414.982,332.8l16.968,16.968l-39.6,39.6l-39.6,39.6
	l-16.968-16.976L414.982,332.8z M462.862,414.632l-45.248,45.248c-9.368,9.368-24.592,9.352-33.944,0l-19.6-19.592l39.6-39.6
	l39.6-39.6l19.6,19.6C472.222,390.04,472.222,405.272,462.862,414.632z"/>
<path style="fill:#F5B945;" d="M62.598,465.456L17.342,420.2c-12.496-12.496-12.496-32.76,0-45.256L371.966,20.328
	c12.496-12.496,32.76-12.496,45.256,0l45.256,45.256c12.496,12.496,12.496,32.76,0,45.256L107.854,465.456
	C95.358,477.96,75.102,477.96,62.598,465.456z"/>
<ellipse style="fill:#FFFFFF;" cx="391.902" cy="92.481" rx="17.6" ry="17.6"/>
<g>
	<path style="fill:#4D4D4D;" d="M468.134,59.928l-45.256-45.256c-15.6-15.6-40.984-15.584-56.568,0
		c0,0-102.544,102.544-102.552,102.552L11.694,369.296c-15.592,15.592-15.592,40.976,0,56.568l45.248,45.248
		c7.8,7.8,18.04,11.696,28.28,11.696c10.248,0,20.496-3.896,28.288-11.696l354.624-354.616
		C483.726,100.904,483.726,75.52,468.134,59.928z M456.814,105.184L102.198,459.8c-9.056,9.064-24.88,9.064-33.944,0l-45.248-45.248
		c-4.536-4.536-7.032-10.56-7.032-16.968c0-6.416,2.496-12.448,7.032-16.976l42.784-42.784l39.592,39.6
		c1.56,1.56,3.608,2.344,5.656,2.344s4.096-0.784,5.656-2.344c3.128-3.128,3.128-8.184,0-11.312l-39.592-39.6l22.624-22.624
		l28.28,28.28c1.56,1.56,3.608,2.344,5.656,2.344s4.096-0.784,5.656-2.344c3.128-3.128,3.128-8.184,0-11.312l-28.28-28.28
		l22.632-22.632l39.6,39.6c1.56,1.56,3.608,2.344,5.656,2.344s4.096-0.784,5.656-2.344c3.128-3.128,3.128-8.184,0-11.312l-39.6-39.6
		L167.614,236l28.28,28.28c1.56,1.56,3.608,2.344,5.656,2.344s4.096-0.784,5.656-2.344c3.128-3.128,3.128-8.184,0-11.312
		l-28.28-28.28l22.632-22.632l39.6,39.6c1.56,1.56,3.608,2.344,5.656,2.344s4.096-0.784,5.656-2.344
		c3.128-3.128,3.128-8.184,0-11.312l-39.6-39.6l22.632-22.632l28.28,28.28c1.56,1.56,3.608,2.344,5.656,2.344
		s4.096-0.784,5.656-2.344c3.128-3.128,3.128-8.184,0-11.312l-28.28-28.28l22.632-22.632l39.6,39.6
		c1.56,1.56,3.608,2.344,5.656,2.344s4.096-0.784,5.656-2.344c3.128-3.128,3.128-8.184,0-11.312l-39.6-39.6l22.632-22.632
		l28.28,28.28c1.56,1.56,3.608,2.344,5.656,2.344s4.096-0.784,5.656-2.344c3.128-3.128,3.128-8.184,0-11.312l-28.28-28.28
		l62.936-62.936c4.528-4.528,10.56-7.032,16.976-7.032c6.408,0,12.44,2.496,16.968,7.032l45.248,45.248
		c4.528,4.528,7.032,10.56,7.032,16.968C463.846,94.624,461.35,100.656,456.814,105.184z"/>
	<path style="fill:#4D4D4D;" d="M373.814,74.36c-4.832,4.832-7.504,11.256-7.504,18.104c0,6.832,2.664,13.264,7.504,18.096
		c4.992,4.992,11.544,7.488,18.104,7.488s13.112-2.496,18.104-7.488c4.832-4.832,7.496-11.256,7.496-18.096
		c0-6.84-2.656-13.272-7.496-18.104C400.038,64.376,383.806,64.376,373.814,74.36z M398.71,99.248c-3.752,3.736-9.84,3.736-13.576,0
		c-1.816-1.816-2.816-4.216-2.816-6.784c0-2.568,1-4.976,2.816-6.792c1.872-1.864,4.328-2.808,6.792-2.808s4.912,0.936,6.792,2.808
		C402.454,89.416,402.454,95.504,398.71,99.248z"/>
</g>
</svg>